<?xml version="1.0" encoding="UTF-8"?>
<!DOCTYPE svg PUBLIC "-//W3C//DTD SVG 1.1//EN" "http://www.w3.org/Graphics/SVG/1.1/DTD/svg11.dtd">
<svg xmlns="http://www.w3.org/2000/svg" version="1.1" width="192px" height="192px" style="shape-rendering:geometricPrecision; text-rendering:geometricPrecision; image-rendering:optimizeQuality; fill-rule:evenodd; clip-rule:evenodd" xmlns:xlink="http://www.w3.org/1999/xlink">
<g><path style="opacity:0.991" fill="#841b1f" d="M 34.5,9.5 C 41.967,9.15236 49.3003,9.81903 56.5,11.5C 63.6997,9.81903 71.033,9.15236 78.5,9.5C 78.4139,11.677 77.7472,13.677 76.5,15.5C 79.893,20.6639 80.2264,25.9972 77.5,31.5C 80.723,42.9042 77.723,52.4042 68.5,60C 68.6448,60.772 68.9781,61.4387 69.5,62C 76.5,62.6667 83.5,62.6667 90.5,62C 83.6249,56.2529 81.7915,49.0863 85,40.5C 91.2399,30.5328 99.7399,28.0328 110.5,33C 120.728,42.3682 121.062,52.0349 111.5,62C 117.644,62.6534 122.477,65.4867 126,70.5C 127.235,78.4233 127.902,86.4233 128,94.5C 143.498,85.7522 158.831,76.7522 174,67.5C 174.667,101.167 174.667,134.833 174,168.5C 158.831,159.248 143.498,150.248 128,141.5C 127.667,148.5 127.333,155.5 127,162.5C 125.167,167.667 121.667,171.167 116.5,173C 86.8333,173.667 57.1667,173.667 27.5,173C 22.6667,170.833 19.1667,167.333 17,162.5C 16.3333,132.833 16.3333,103.167 17,73.5C 19.1667,68.6667 22.6667,65.1667 27.5,63C 32.8333,62.6667 38.1667,62.3333 43.5,62C 43.9574,61.586 44.2907,61.086 44.5,60.5C 39.6405,56.4702 36.1405,51.4702 34,45.5C 33.0625,40.4733 33.5625,35.64 35.5,31C 32.6868,25.8251 33.0201,20.8251 36.5,16C 34.9837,14.103 34.317,11.9363 34.5,9.5 Z M 45.5,18.5 C 51.0928,19.6179 52.9261,22.9512 51,28.5C 45.3444,33.1292 41.511,31.9625 39.5,25C 40.3262,21.6763 42.3262,19.5097 45.5,18.5 Z M 66.5,18.5 C 73.051,19.8705 74.8843,23.5371 72,29.5C 64.0634,32.9098 60.7301,30.2431 62,21.5C 63.4087,20.2189 64.9087,19.2189 66.5,18.5 Z M 54.5,28.5 C 56.4286,28.2308 58.0953,28.7308 59.5,30C 57.5,30.6667 55.5,30.6667 53.5,30C 54.056,29.6174 54.3893,29.1174 54.5,28.5 Z M 99.5,31.5 C 101.705,31.8459 101.872,32.5126 100,33.5C 88.9895,36.0065 88.8228,35.3398 99.5,31.5 Z M 111.5,39.5 C 111.158,38.6618 110.492,38.3284 109.5,38.5C 107.095,37.3129 104.761,35.8129 102.5,34C 107.069,32.5983 110.735,34.0983 113.5,38.5C 113.043,39.2975 112.376,39.6309 111.5,39.5 Z M 39.5,35.5 C 50.3639,38.124 61.1973,38.124 72,35.5C 73.982,46.0383 70.1487,53.8716 60.5,59C 49.7384,60.5853 42.905,56.0853 40,45.5C 39.5017,42.1832 39.335,38.8499 39.5,35.5 Z M 89.5,37.5 C 90.8333,37.5 92.1667,37.5 93.5,37.5C 94.0655,42.4177 92.2321,46.0843 88,48.5C 86.1147,48.1379 85.2814,46.9713 85.5,45C 85.9274,41.9766 87.2607,39.4766 89.5,37.5 Z M 108.5,39.5 C 108.842,40.3382 109.508,40.6716 110.5,40.5C 114.168,42.3919 115.335,45.3919 114,49.5C 112.333,53.7488 109.499,54.7488 105.5,52.5C 102.046,47.0911 103.046,42.7578 108.5,39.5 Z M 94.5,44.5 C 97.1667,44.8333 99.8333,45.1667 102.5,45.5C 102.756,47.9372 103.423,50.2706 104.5,52.5C 99.9293,59.0791 95.4293,59.0791 91,52.5C 90.3333,51.1667 90.3333,49.8333 91,48.5C 92.3756,47.2949 93.5423,45.9616 94.5,44.5 Z M 115.5,49.5 C 116.338,49.8417 116.672,50.5084 116.5,51.5C 115.872,54.09 114.705,56.4234 113,58.5C 112.333,57.1667 112.333,55.8333 113,54.5C 114.094,52.9221 114.928,51.2554 115.5,49.5 Z M 91.5,58.5 C 95.455,58.148 98.7884,59.3146 101.5,62C 97.4672,63.0404 93.8005,62.3737 90.5,60C 91.056,59.6174 91.3893,59.1174 91.5,58.5 Z M 46.5,60.5 C 47.766,61.0899 49.0993,61.5899 50.5,62C 48.5372,62.8442 47.2039,62.3442 46.5,60.5 Z"/></g>
<g><path style="opacity:0.908" fill="#841b20" d="M 44.5,20.5 C 47.6686,20.6617 49.6686,22.3284 50.5,25.5C 48.4225,29.7286 45.5891,30.3953 42,27.5C 40.9164,24.3411 41.7498,22.0078 44.5,20.5 Z"/></g>
<g><path style="opacity:0.921" fill="#841b20" d="M 65.5,20.5 C 71.6506,21.1029 72.984,23.9362 69.5,29C 62.3684,28.9033 61.035,26.07 65.5,20.5 Z"/></g>
<g><path style="opacity:0.251" fill="#821c1f" d="M 109.5,38.5 C 110.492,38.3284 111.158,38.6618 111.5,39.5C 110.833,39.5 110.5,39.8333 110.5,40.5C 109.508,40.6716 108.842,40.3382 108.5,39.5C 109.167,39.5 109.5,39.1667 109.5,38.5 Z"/></g>
<g><path style="opacity:0.251" fill="#821c1f" d="M 115.5,49.5 C 116.302,48.1153 116.969,48.282 117.5,50C 117.43,50.7648 117.097,51.2648 116.5,51.5C 116.672,50.5084 116.338,49.8417 115.5,49.5 Z"/></g>
</svg>
