<?xml version="1.0" encoding="UTF-8"?>
<!DOCTYPE svg PUBLIC "-//W3C//DTD SVG 1.1//EN" "http://www.w3.org/Graphics/SVG/1.1/DTD/svg11.dtd">
<svg xmlns="http://www.w3.org/2000/svg" version="1.1" width="192px" height="192px" style="shape-rendering:geometricPrecision; text-rendering:geometricPrecision; image-rendering:optimizeQuality; fill-rule:evenodd; clip-rule:evenodd" xmlns:xlink="http://www.w3.org/1999/xlink">
<g><path style="opacity:0.996" fill="#841b1f" d="M 24.5,35.5 C 55.5018,35.3334 86.5018,35.5 117.5,36C 122.525,37.6891 126.359,40.8558 129,45.5C 130.025,53.1301 130.859,60.7968 131.5,68.5C 147.33,59.7528 162.996,50.7528 178.5,41.5C 179.833,76.8333 179.833,112.167 178.5,147.5C 162.584,138.293 146.751,128.959 131,119.5C 130.897,127.244 130.231,134.911 129,142.5C 126.833,147.333 123.333,150.833 118.5,153C 87.1667,153.667 55.8333,153.667 24.5,153C 18.6405,151.141 14.8072,147.307 13,141.5C 12.3333,110.167 12.3333,78.8333 13,47.5C 15.0451,41.6244 18.8785,37.6244 24.5,35.5 Z"/></g>
</svg>
